# xmcd
#
# Track frame offsets:
#	150
#	14398
#	27442
#	39326
#	52430
#	65622
#	80394
#	92803
#	107845
#	121618
#	135152
#	151841
#	165171
#	180370
#	195261
#
# Disc length: 2773 seconds
#
# Revision: 0
# Processed by: cddbd v1.5.2PL0 Copyright (c) Steve Scherf et al.
# Submitted via: audiograbber 1.83.01
#
DISCID=ae0ad30f
DTITLE=BILLIE HOLIDAY - The Essential Billie Holiday
DYEAR=1900
DGENRE=Blues
TTITLE0=Strange Fruit
TTITLE1=That Ole Devil Called Love
TTITLE2=Lets Call The Whole Thing Off
TTITLE3=Summertime
TTITLE4=God Bless The Child
TTITLE5=Pennies from Heaven
TTITLE6=The Very Thought Of You
TTITLE7=Aint Nobody Business If I Do
TTITLE8=On The Sunny Side Of The Street
TTITLE9=The Mood That Im In
TTITLE10=Stormy Weather
TTITLE11=I Loves You Porgy
TTITLE12=Lover Man
TTITLE13=These Foolish Things
TTITLE14=A Fine Romance
EXTD=MC Mastercuts
EXTT0=
EXTT1=
EXTT2=
EXTT3=
EXTT4=
EXTT5=
EXTT6=
EXTT7=
EXTT8=
EXTT9=
EXTT10=
EXTT11=
EXTT12=
EXTT13=
EXTT14=
PLAYORDER=
